<svg width="485" height="257" viewBox="0 0 485 257" fill="none" xmlns="http://www.w3.org/2000/svg">
<path d="M447.7 194.901C444.1 217.701 436.2 234.301 424 244.601C411.8 254.901 396.9 258.701 379.2 255.901C361.5 253.101 348.4 244.901 339.9 231.201C331.4 217.601 329 199.401 332.7 176.601L339.1 136.501C342.7 113.801 350.6 97.2007 362.8 86.8007C375 76.4007 390 72.6007 407.7 75.4007C425.4 78.2007 438.4 86.5007 446.9 100.201C455.3 113.901 457.8 132.101 454.1 154.801L447.7 194.901ZM425.5 145.601C427.8 131.201 427.1 120.201 423.3 112.601C419.6 104.901 413.1 100.401 403.9 98.9007C394.7 97.4007 387.1 99.8007 381.2 105.901C375.3 112.001 371.2 122.301 369 136.601L361.2 185.301C358.9 199.701 359.6 210.801 363.4 218.501C367.2 226.201 373.6 230.801 382.9 232.301C392.1 233.801 399.7 231.401 405.5 225.301C411.3 219.201 415.4 208.801 417.7 194.301L425.5 145.601Z" fill="#E0E0E0"/>
<path d="M459.9 187.3C456.3 210.1 448.4 226.7 436.2 237C424 247.3 409.1 251.1 391.4 248.3C373.7 245.5 360.6 237.3 352.1 223.6C343.6 210 341.2 191.8 344.9 169L351.3 128.9C354.9 106.2 362.8 89.6001 375 79.2001C387.2 68.8001 402.2 65.0001 419.9 67.8001C437.6 70.6001 450.6 78.9001 459.1 92.6001C467.5 106.3 470 124.5 466.3 147.2L459.9 187.3ZM437.7 138C440 123.6 439.3 112.6 435.5 105C431.8 97.3001 425.3 92.8001 416.1 91.3001C406.9 89.8001 399.3 92.2001 393.4 98.3001C387.5 104.4 383.4 114.7 381.2 129L373.4 177.7C371.1 192.1 371.8 203.2 375.6 210.9C379.4 218.6 385.8 223.2 395.1 224.7C404.3 226.2 411.9 223.8 417.7 217.7C423.5 211.6 427.6 201.2 429.9 186.7L437.7 138Z" fill="#6C1C1A"/>
<g opacity="0.4">
<path d="M459.9 187.3C456.3 210.1 448.4 226.7 436.2 237C424 247.3 409.1 251.1 391.4 248.3C373.7 245.5 360.6 237.3 352.1 223.6C343.6 210 341.2 191.8 344.9 169L351.3 128.9C354.9 106.2 362.8 89.6001 375 79.2001C387.2 68.8001 402.2 65.0001 419.9 67.8001C437.6 70.6001 450.6 78.9001 459.1 92.6001C467.5 106.3 470 124.5 466.3 147.2L459.9 187.3ZM437.7 138C440 123.6 439.3 112.6 435.5 105C431.8 97.3001 425.3 92.8001 416.1 91.3001C406.9 89.8001 399.3 92.2001 393.4 98.3001C387.5 104.4 383.4 114.7 381.2 129L373.4 177.7C371.1 192.1 371.8 203.2 375.6 210.9C379.4 218.6 385.8 223.2 395.1 224.7C404.3 226.2 411.9 223.8 417.7 217.7C423.5 211.6 427.6 201.2 429.9 186.7L437.7 138Z" fill="black"/>
</g>
<path d="M476.7 189.9C473.1 212.7 465.2 229.3 453 239.6C440.8 249.9 425.9 253.7 408.2 250.9C390.5 248.1 377.4 239.9 368.9 226.2C360.4 212.6 358 194.4 361.7 171.6L368.1 131.5C371.7 108.8 379.6 92.2001 391.8 81.8001C404 71.4001 419 67.6001 436.7 70.5001C454.4 73.3001 467.4 81.6001 475.9 95.3001C484.3 109 486.8 127.2 483.1 149.9L476.7 189.9ZM454.6 140.7C456.9 126.3 456.2 115.3 452.4 107.7C448.7 100 442.2 95.4001 433 94.0001C423.8 92.5001 416.2 94.9001 410.3 101C404.4 107.1 400.3 117.4 398.1 131.7L390.3 180.4C388 194.8 388.7 205.9 392.5 213.6C396.3 221.3 402.7 225.9 412 227.4C421.2 228.9 428.8 226.5 434.6 220.4C440.4 214.3 444.5 203.9 446.8 189.4L454.6 140.7Z" fill="#6C1C1A"/>
<path d="M367.8 133.9C367.8 134 363.7 134.9 358.5 135.9C353.3 136.9 349.1 137.6 349.1 137.5C349.1 137.4 353.2 136.5 358.4 135.5C363.6 134.5 367.8 133.8 367.8 133.9Z" fill="#6C1C1A"/>
<path d="M366.1 149.9C366.1 150 362 150.9 356.8 151.9C351.6 152.9 347.4 153.6 347.4 153.5C347.4 153.4 351.5 152.5 356.7 151.5C361.9 150.5 366.1 149.8 366.1 149.9Z" fill="#6C1C1A"/>
<path d="M364.4 165.9C364.4 166 360.3 166.9 355.1 167.9C349.9 168.9 345.7 169.6 345.7 169.5C345.7 169.4 349.8 168.5 355 167.5C360.2 166.5 364.4 165.8 364.4 165.9Z" fill="#6C1C1A"/>
<path d="M362.7 181.9C362.7 182 358.6 182.9 353.4 183.9C348.2 184.9 344 185.6 344 185.5C344 185.4 348.1 184.5 353.3 183.5C358.5 182.5 362.7 181.8 362.7 181.9Z" fill="#6C1C1A"/>
<path d="M361 197.9C361 198 360.1 198.2 358.5 198.5C357 198.8 354.8 199.3 352.5 199.7C350.1 200.2 348 200.5 346.5 200.8C345 201.1 344 201.2 344 201.1C344 201 344.9 200.8 346.5 200.5C348.1 200.2 350.2 199.7 352.5 199.3C354.8 198.8 357 198.5 358.5 198.2C360 198 361 197.8 361 197.9Z" fill="#6C1C1A"/>
<path d="M363.1 213.1C363.1 213.2 362.3 213.4 361 213.7C359.7 214 357.8 214.4 355.8 214.8C353.7 215.2 351.9 215.5 350.5 215.8C349.1 216 348.3 216.1 348.3 216.1C348.3 216 349.1 215.8 350.4 215.5C351.7 215.2 353.6 214.8 355.6 214.4C357.6 214 359.5 213.7 360.9 213.4C362.2 213.2 363.1 213.1 363.1 213.1Z" fill="#6C1C1A"/>
<path d="M370.5 228C370.5 228.1 369.8 228.3 368.6 228.5C367.4 228.8 365.8 229.1 363.9 229.5C362.1 229.9 360.4 230.2 359.2 230.3C358 230.5 357.2 230.6 357.2 230.5C357.2 230.4 357.9 230.2 359.1 230C360.3 229.7 361.9 229.4 363.8 229C365.6 228.6 367.3 228.3 368.5 228.2C369.8 228.1 370.5 228 370.5 228Z" fill="#6C1C1A"/>
<path d="M385.1 239.5C385.1 239.6 384.4 239.8 383.2 240C382 240.3 380.4 240.6 378.5 241C376.7 241.4 375 241.7 373.8 241.8C372.6 242 371.8 242.1 371.8 242C371.8 241.9 372.5 241.7 373.7 241.5C374.9 241.2 376.5 240.9 378.4 240.5C380.2 240.1 381.9 239.8 383.1 239.7C384.4 239.5 385.1 239.4 385.1 239.5Z" fill="#6C1C1A"/>
<path d="M439.3 213.9C439.3 214 433.9 215.5 427.2 217.3C420.5 219 415 220.4 415 220.2C415 220.1 420.4 218.6 427.1 216.8C433.8 215.1 439.3 213.8 439.3 213.9Z" fill="#6C1C1A"/>
<path d="M444.9 200.9C444.9 201 440.5 202.3 434.9 203.7C429.4 205.1 424.8 206.2 424.8 206.1C424.8 206 429.2 204.7 434.8 203.3C440.3 201.8 444.9 200.8 444.9 200.9Z" fill="#6C1C1A"/>
<path d="M449 185.9C449 186 444.6 187.3 439 188.7C433.5 190.1 428.9 191.2 428.9 191.1C428.9 191 433.3 189.7 438.9 188.3C444.4 186.9 448.9 185.8 449 185.9Z" fill="#6C1C1A"/>
<path d="M453.1 170.9C453.1 171 448.7 172.3 443.1 173.7C437.6 175.1 433 176.2 433 176.1C433 176 437.4 174.7 443 173.3C448.5 171.9 453 170.8 453.1 170.9Z" fill="#6C1C1A"/>
<path d="M457.1 156C457.1 156.1 452.7 157.4 447.1 158.8C441.6 160.2 437 161.3 437 161.2C437 161.1 441.4 159.8 447 158.4C452.6 156.9 457.1 155.8 457.1 156Z" fill="#6C1C1A"/>
<path d="M456.4 141.9C456.4 142 452 143.3 446.4 144.7C440.9 146.1 436.3 147.2 436.3 147.1C436.3 147 440.7 145.7 446.3 144.3C451.9 142.8 456.4 141.8 456.4 141.9Z" fill="#6C1C1A"/>
<path d="M458.9 127.3C458.9 127.4 454.5 128.7 448.9 130.1C443.4 131.5 438.8 132.6 438.8 132.5C438.8 132.4 443.2 131.1 448.8 129.7C454.3 128.3 458.8 127.2 458.9 127.3Z" fill="#6C1C1A"/>
<path d="M459.7 113.3C459.7 113.4 455.3 114.7 449.7 116.1C444.2 117.5 439.6 118.6 439.6 118.5C439.6 118.4 444 117.1 449.6 115.7C455.1 114.2 459.6 113.2 459.7 113.3Z" fill="#6C1C1A"/>
<path d="M448.2 101.5C448.2 101.6 445.5 102.4 442.2 103.3C438.8 104.2 436.1 104.8 436 104.7C436 104.6 438.7 103.8 442 102.9C445.4 102 448.2 101.4 448.2 101.5Z" fill="#6C1C1A"/>
<path d="M442.2 94.5002C442.2 94.6002 439.5 95.4002 436.2 96.3002C432.8 97.2002 430.1 97.8002 430 97.7002C430 97.6002 432.7 96.8002 436 95.9002C439.5 95.0002 442.2 94.3002 442.2 94.5002Z" fill="#6C1C1A"/>
<path d="M371.8 114.9C371.8 115 367.7 115.9 362.5 116.9C357.3 117.9 353.1 118.6 353.1 118.5C353.1 118.4 357.2 117.5 362.4 116.5C367.6 115.5 371.8 114.8 371.8 114.9Z" fill="#6C1C1A"/>
<path d="M380 95.9997C380 96.0997 375.5 97.0997 369.9 98.1997C364.3 99.2997 359.7 100.1 359.7 99.8997C359.7 99.7997 364.2 98.7997 369.8 97.6997C375.4 96.5997 380 95.8997 380 95.9997Z" fill="#6C1C1A"/>
<path d="M396 78.5997C396 78.6997 390.3 79.8997 383.2 81.2997C376.1 82.6997 370.3 83.6997 370.3 83.5997C370.3 83.4997 376 82.2997 383.1 80.8997C390.2 79.4997 396 78.4997 396 78.5997Z" fill="#6C1C1A"/>
<path d="M138.9 187.4L161.3 185.7L163.1 209.4L140.7 211.1L143.8 250.5L114.4 252.8L111.3 213.4L49.7002 218.2L49.8002 192.2L99.6002 75.8004L130 73.4004L138.9 187.4ZM61.9002 193.4L109.4 189.7L103.8 117.8L103.1 117.6L101.1 123L61.9002 193.4Z" fill="#E0E0E0"/>
<path d="M125.2 175.9L147.6 174.2L149.4 197.9L127 199.6L130.1 239L100.7 241.3L97.6 201.9L21.6 207.8L19.5 189.8L85.9 64.3004L116.3 61.9004L125.2 175.9ZM48.2 181.9L95.7 178.2L90.1 106.3L89.4 106.1L87.4 111.5L48.2 181.9Z" fill="#6C1C1A"/>
<g opacity="0.4">
<path d="M125.2 175.9L147.6 174.2L149.4 197.9L127 199.6L130.1 239L100.7 241.3L97.6 201.9L21.6 207.8L19.5 189.8L85.9 64.3004L116.3 61.9004L125.2 175.9ZM48.2 181.9L95.7 178.2L90.1 106.3L89.4 106.1L87.4 111.5L48.2 181.9Z" fill="black"/>
</g>
<path d="M105.7 177.3L128.1 175.6L129.9 199.3L107.5 201L110.6 240.4L81.2 242.7L78.1 203.3L2.1 209.2L0 191.2L66.4 65.8004L96.8 63.4004L105.7 177.3ZM28.7 183.3L76.2 179.6L70.6 107.7L69.9 107.5L67.9 112.9L28.7 183.3Z" fill="#6C1C1A"/>
<path d="M57.4 166.4C57.4 166.4 57.1 166.6 56.5 166.9C55.9 167.2 55 167.7 53.9 168.2C51.7 169.3 48.6 170.8 45.1 172.3C41.6 173.9 38.5 175.3 36.2 176.2C35.1 176.7 34.1 177.1 33.5 177.3C32.9 177.6 32.5 177.7 32.5 177.7C32.5 177.7 32.8 177.5 33.5 177.2C34.2 176.9 35.1 176.5 36.2 176C38.5 175 41.6 173.5 45 172C48.4 170.4 51.5 169 53.8 168C54.9 167.5 55.8 167.1 56.5 166.8C57.1 166.5 57.4 166.4 57.4 166.4Z" fill="#6C1C1A"/>
<path d="M68.0001 147.201C68.0001 147.201 67.7001 147.401 67.0001 147.701C66.4001 148.001 65.5001 148.501 64.3001 149.001C62.0001 150.101 58.9001 151.501 55.4001 153.001C51.9001 154.501 48.7001 155.801 46.4001 156.801C45.2001 157.301 44.3001 157.601 43.6001 157.901C42.9001 158.101 42.6001 158.301 42.6001 158.201C42.6001 158.201 42.9001 158.001 43.6001 157.701C44.3001 157.401 45.2001 157.001 46.3001 156.501C48.6001 155.501 51.8001 154.101 55.3001 152.601C58.8001 151.101 61.9001 149.701 64.2001 148.701C65.3001 148.201 66.2001 147.801 66.9001 147.501C67.7001 147.301 68.0001 147.201 68.0001 147.201Z" fill="#6C1C1A"/>
<path d="M123.6 164.101C123.6 164.101 123.4 164.301 122.9 164.601C122.4 164.901 121.8 165.301 121 165.701C119.4 166.601 117.1 167.901 114.5 169.301C111.9 170.601 109.6 171.801 107.9 172.601C107 173.001 106.3 173.301 105.9 173.501C105.4 173.701 105.1 173.801 105.1 173.801C105.1 173.801 105.3 173.601 105.8 173.401C106.3 173.101 107 172.801 107.8 172.401C109.6 171.501 111.9 170.301 114.4 169.001C116.9 167.701 119.2 166.501 121 165.501C121.8 165.101 122.5 164.701 123 164.501C123.4 164.201 123.6 164.101 123.6 164.101Z" fill="#6C1C1A"/>
<path d="M147.5 177.4C147.5 177.4 147.3 177.6 146.8 177.9C146.3 178.2 145.7 178.6 144.9 179C143.3 179.9 141 181.2 138.4 182.6C135.8 183.9 133.5 185.1 131.8 185.9C130.9 186.3 130.2 186.6 129.8 186.8C129.3 187 129 187.1 129 187.1C129 187.1 129.2 186.9 129.7 186.7C130.2 186.4 130.9 186.1 131.7 185.7C133.5 184.8 135.8 183.6 138.3 182.3C140.8 181 143.1 179.8 144.9 178.8C145.7 178.4 146.4 178 146.9 177.8C147.2 177.5 147.5 177.4 147.5 177.4Z" fill="#6C1C1A"/>
<path d="M148.5 189.401C148.5 189.401 148.3 189.601 147.8 189.901C147.3 190.201 146.7 190.601 145.9 191.001C144.3 191.901 142 193.201 139.4 194.601C136.8 195.901 134.5 197.101 132.8 197.901C131.9 198.301 131.2 198.601 130.8 198.801C130.3 199.001 130 199.101 130 199.101C130 199.101 130.2 198.901 130.7 198.701C131.2 198.401 131.9 198.101 132.7 197.701C134.5 196.801 136.8 195.601 139.3 194.301C141.8 193.001 144.1 191.801 145.9 190.801C146.7 190.401 147.4 190.001 147.9 189.801C148.3 189.501 148.5 189.301 148.5 189.401Z" fill="#6C1C1A"/>
<path d="M127 200.001C127 200.001 126.8 200.201 126.3 200.501C125.9 200.801 125.2 201.201 124.4 201.601C122.8 202.501 120.6 203.801 118.1 205.101C115.6 206.401 113.3 207.601 111.7 208.401C110.9 208.801 110.2 209.101 109.7 209.301C109.2 209.501 109 209.601 109 209.601C109 209.601 109.2 209.401 109.7 209.201C110.2 208.901 110.9 208.601 111.6 208.201C113.3 207.301 115.5 206.101 118 204.801C120.4 203.501 122.7 202.301 124.4 201.301C125.2 200.901 125.8 200.501 126.3 200.301C126.7 200.101 126.9 200.001 127 200.001Z" fill="#6C1C1A"/>
<path d="M127.9 212.9C127.9 212.9 127.7 213.1 127.2 213.4C126.8 213.7 126.1 214.1 125.3 214.5C123.7 215.4 121.5 216.7 119 218C116.5 219.3 114.2 220.5 112.6 221.3C111.8 221.7 111.1 222 110.6 222.2C110.1 222.4 109.9 222.5 109.9 222.5C109.9 222.5 110.1 222.3 110.6 222.1C111.1 221.8 111.8 221.5 112.5 221.1C114.2 220.2 116.4 219 118.9 217.7C121.3 216.4 123.6 215.2 125.3 214.2C126.1 213.8 126.7 213.4 127.2 213.2C127.6 213 127.9 212.9 127.9 212.9Z" fill="#6C1C1A"/>
<path d="M128.9 225.801C128.9 225.801 128.7 226.001 128.2 226.301C127.8 226.601 127.1 227.001 126.3 227.401C124.7 228.301 122.5 229.601 120 230.901C117.5 232.201 115.2 233.401 113.6 234.201C112.8 234.601 112.1 234.901 111.6 235.101C111.1 235.301 110.9 235.401 110.9 235.401C110.9 235.401 111.1 235.201 111.6 235.001C112.1 234.701 112.8 234.401 113.5 234.001C115.2 233.101 117.4 231.901 119.9 230.601C122.3 229.301 124.6 228.101 126.3 227.101C127.1 226.701 127.7 226.301 128.2 226.101C128.6 225.901 128.8 225.801 128.9 225.801Z" fill="#6C1C1A"/>
<path d="M122.6 150.501C122.6 150.501 122.4 150.701 121.9 151.001C121.4 151.301 120.8 151.701 120 152.101C118.4 153.001 116.1 154.301 113.5 155.701C110.9 157.001 108.6 158.201 106.9 159.001C106 159.401 105.3 159.701 104.9 159.901C104.4 160.101 104.1 160.201 104.1 160.201C104.1 160.201 104.3 160.001 104.8 159.801C105.3 159.501 106 159.201 106.8 158.801C108.6 157.901 110.9 156.701 113.4 155.401C115.9 154.101 118.2 152.901 120 151.901C120.8 151.501 121.5 151.101 122 150.901C122.4 150.601 122.6 150.501 122.6 150.501Z" fill="#6C1C1A"/>
<path d="M121.7 136.9C121.7 136.9 121.5 137.1 121 137.4C120.5 137.7 119.9 138.1 119.1 138.5C117.5 139.4 115.2 140.7 112.6 142.1C110 143.4 107.7 144.6 106 145.4C105.1 145.8 104.4 146.1 104 146.3C103.5 146.5 103.2 146.6 103.2 146.6C103.2 146.6 103.4 146.4 103.9 146.2C104.4 145.9 105.1 145.6 105.9 145.2C107.7 144.3 110 143.1 112.5 141.8C115 140.5 117.3 139.3 119.1 138.3C119.9 137.9 120.6 137.5 121.1 137.3C121.4 137 121.7 136.9 121.7 136.9Z" fill="#6C1C1A"/>
<path d="M120.2 121.001C120.2 121.001 120 121.201 119.5 121.401C119.1 121.701 118.4 122.001 117.7 122.501C116.1 123.401 113.9 124.601 111.5 125.901C109.1 127.201 106.8 128.301 105.2 129.101C104.4 129.501 103.7 129.801 103.3 130.001C102.8 130.201 102.6 130.301 102.6 130.301C102.6 130.301 102.8 130.101 103.3 129.901C103.8 129.601 104.4 129.301 105.2 128.901C106.9 128.001 109.1 126.901 111.5 125.701C113.9 124.401 116.1 123.301 117.7 122.401C118.5 122.001 119.1 121.701 119.6 121.401C119.9 121.101 120.2 121.001 120.2 121.001Z" fill="#6C1C1A"/>
<path d="M119.3 104.4C119.3 104.4 119.1 104.6 118.6 104.8C118.2 105.1 117.5 105.4 116.8 105.9C115.2 106.8 113 108 110.6 109.3C108.2 110.6 105.9 111.7 104.3 112.5C103.5 112.9 102.8 113.2 102.4 113.4C101.9 113.6 101.7 113.7 101.7 113.7C101.7 113.7 101.9 113.5 102.4 113.3C102.9 113 103.5 112.7 104.3 112.3C106 111.4 108.2 110.3 110.6 109.1C113 107.8 115.2 106.7 116.8 105.8C117.6 105.4 118.2 105.1 118.7 104.8C119 104.5 119.3 104.4 119.3 104.4Z" fill="#6C1C1A"/>
<path d="M118.2 87.4004C118.2 87.4004 118 87.6004 117.5 87.9004C117 88.2004 116.4 88.6004 115.6 89.1004C114 90.1004 111.7 91.4004 109.1 92.9004C106.5 94.3004 104.2 95.6004 102.4 96.4004C101.5 96.8004 100.8 97.2004 100.3 97.4004C99.8 97.6004 99.5 97.7004 99.5 97.7004C99.5 97.7004 99.7 97.5004 100.2 97.3004C100.7 97.0004 101.4 96.6004 102.2 96.2004C104 95.2004 106.3 94.0004 108.8 92.6004C111.3 91.2004 113.6 89.9004 115.4 88.9004C116.2 88.5004 116.9 88.1004 117.4 87.8004C117.9 87.5004 118.2 87.4004 118.2 87.4004Z" fill="#6C1C1A"/>
<path d="M117.6 71.3008C117.6 71.3008 117.4 71.5008 116.9 71.7008C116.4 72.0008 115.7 72.3008 114.9 72.8008C113.2 73.7008 110.8 75.0008 108.1 76.3008C105.4 77.6008 103 78.7008 101.2 79.5008C100.3 79.9008 99.5998 80.2008 99.0998 80.4008C98.5998 80.6008 98.2998 80.7008 98.2998 80.7008C98.2998 80.7008 98.5998 80.5008 98.9998 80.3008C99.5998 80.0008 100.3 79.7008 101.1 79.3008C102.9 78.4008 105.3 77.3008 107.9 76.0008C110.5 74.7008 112.9 73.5008 114.7 72.6008C115.5 72.2008 116.2 71.9008 116.8 71.6008C117.3 71.4008 117.5 71.3008 117.6 71.3008Z" fill="#6C1C1A"/>
<path d="M72.8999 129.601C72.9999 129.701 68.4999 132.001 62.8999 134.801C57.2999 137.601 52.7999 139.701 52.6999 139.601C52.5999 139.501 57.0999 137.201 62.6999 134.401C68.2999 131.601 72.7999 129.501 72.8999 129.601Z" fill="#6C1C1A"/>
<path d="M71.1001 115.801C71.2001 115.901 69.7001 117.001 67.8001 117.901C65.8001 118.901 64.1001 119.401 64.1001 119.301C64.1001 119.201 65.7001 118.501 67.6001 117.501C69.5001 116.501 71.1001 115.601 71.1001 115.801Z" fill="#6C1C1A"/>
<path d="M166.6 190.4C173.2 205.1 180.4 214.7 196.1 227.8C215.1 243.7 242.4 248.9 266 241.5C289.6 234.1 311.6 214.2 318.3 190.4" fill="#E0E0E0"/>
<path d="M242.5 234.7C290.549 234.7 329.5 195.749 329.5 147.7C329.5 99.6514 290.549 60.7002 242.5 60.7002C194.451 60.7002 155.5 99.6514 155.5 147.7C155.5 195.749 194.451 234.7 242.5 234.7Z" fill="#6C1C1A"/>
<path opacity="0.3" d="M215.5 65.1999C212.7 67.4999 216.8 72.0999 219.5 74.4999C222.3 76.7999 225.6 79.5999 225.2 83.2999C216.3 84.7999 207.1 86.4999 199.7 91.6999C188.8 99.3999 184.1 112.9 178.3 125C174.8 132.3 170.6 139.4 167.4 146.9C164.2 154.4 162 162.5 162.5 170.6C163 178.7 166.7 186.9 173.3 191.6C180 196.3 189.8 196.6 196 191.4C196.2 193.7 196.4 196 196.6 198.3L194.6 220.6L245.2 224.3L251 72.4999V61.0999C251.1 61.0999 221.3 60.5999 215.5 65.1999Z" fill="black"/>
<path d="M318.7 148C315.1 146 310.9 145.5 306.8 145.6C302.7 145.7 298.6 146.6 294.6 147.8C291.3 148.8 287.9 150.1 285 151.9L285.4 153.1C296.4 156 308.5 154.7 318.6 149.4C318.9 149.3 319.7 148.9 319.7 148.6C319.6 148.5 318.8 148.1 318.7 148Z" fill="#263238"/>
<path d="M173.7 150.6C172.9 152 173.3 153.9 174 155.3C174.7 156.7 175.9 157.9 177.2 158.9C181 162.1 185.6 164.5 190.6 164.8C195.5 165 200.8 162.7 203 158.2C203.5 157.1 204.5 155.4 204.5 155.4C203.8 154.8 201.5 153.8 200.7 153.5C196.3 151.8 192.1 149.8 187.4 149C182.7 148.3 178.1 148.8 173.7 150.6Z" fill="#263238"/>
<path d="M301.8 97.4C299.1 94.4 265.6 81.5 265.6 81.5L233.9 83.7C233.9 83.7 218.4 87.7 206.8 91.9C199.7 94.5 194 99.9 191.2 106.9L173.7 150.6C173.7 150.6 176.3 149.1 183.7 149.2C191.4 149.3 204.4 155.4 204.4 155.4L196.1 221.1C221.7 238.3 252.4 239.9 282.2 224.9L282.4 215.5L285.6 152.7C288.9 148.2 307 142.3 319.5 148.5C319.6 148.7 307.5 103.6 301.8 97.4Z" fill="#EF9B4A"/>
<path d="M282.8 112.7C282.8 112.7 282.8 112.4 282.9 111.9C283 111.4 283.2 110.7 283.6 109.8C284.2 108.1 285.5 105.8 287.3 103.7C289.2 101.6 291.3 100.1 292.9 99.3004C293.7 98.9004 294.4 98.6004 294.9 98.4004C295.4 98.2004 295.6 98.1004 295.7 98.2004C295.7 98.3004 294.7 98.7004 293.1 99.6004C291.5 100.5 289.5 102 287.7 104.1C285.9 106.2 284.7 108.3 283.9 110C283.1 111.7 282.9 112.8 282.8 112.7Z" fill="#263238"/>
<path d="M282.9 152.2C282.8 152.2 282.6 144 282.6 134C282.6 123.9 282.6 115.8 282.8 115.8C282.9 115.8 283.1 124 283.1 134C283.1 144 283 152.2 282.9 152.2Z" fill="#263238"/>
<path d="M208.6 116.8C208.7 116.8 207.9 125.4 206.8 135.9C205.7 146.4 204.6 154.9 204.5 154.9C204.4 154.9 205.2 146.3 206.3 135.8C207.4 125.3 208.4 116.8 208.6 116.8Z" fill="#263238"/>
<path d="M269.9 83.2002C269.9 83.2002 269.9 83.4002 269.9 83.8002C269.9 84.2002 269.9 84.8002 269.8 85.6002C269.7 87.2002 269.2 89.4002 268 92.0002C266.8 94.6002 264.8 97.4002 261.9 99.7002C258.9 102 254.9 103.6 250.6 103.8C246.3 104 242.1 102.9 238.9 100.8C235.7 98.8002 233.5 96.1002 232 93.7002C230.6 91.2002 229.9 89.0002 229.6 87.5002C229.5 86.7002 229.4 86.1002 229.4 85.7002C229.4 85.3002 229.4 85.1002 229.4 85.1002C229.5 85.1002 229.5 86.0002 229.8 87.5002C230.1 89.0002 230.8 91.2002 232.3 93.6002C233.7 96.0002 236 98.6002 239.1 100.5C242.2 102.5 246.3 103.6 250.5 103.4C254.7 103.2 258.7 101.7 261.6 99.4002C264.5 97.2002 266.5 94.4002 267.7 91.9002C268.9 89.4002 269.4 87.1002 269.6 85.6002C269.9 84.1002 269.9 83.2002 269.9 83.2002Z" fill="#263238"/>
<path d="M205 140.9C205 140.9 204.7 140.8 204.1 140.6C203.5 140.4 202.6 140 201.6 139.6C199.5 138.8 196.5 137.8 193.1 136.9C189.7 136.1 186.6 135.6 184.3 135.3C183.2 135.2 182.2 135.1 181.6 135C181 134.9 180.6 134.9 180.6 134.9C180.6 134.9 181 134.9 181.6 134.9C182.2 134.9 183.2 135 184.3 135.1C186.6 135.3 189.8 135.8 193.2 136.6C196.6 137.5 199.6 138.5 201.8 139.4C202.9 139.8 203.7 140.2 204.3 140.5C204.7 140.7 205 140.8 205 140.9Z" fill="#FAFAFA"/>
<path d="M282.3 137.4C282.3 137.5 265.3 137.1 244.4 136.4C223.5 135.7 206.5 135.1 206.5 135C206.5 134.9 223.5 135.3 244.4 136C265.4 136.6 282.4 137.2 282.3 137.4Z" fill="#FAFAFA"/>
<path d="M312.4 125.7C312.4 125.7 312 125.7 311.2 125.7C310.4 125.7 309.3 125.6 308 125.6C305.3 125.6 301.5 125.9 297.5 126.8C293.4 127.7 289.9 129 287.4 130.1C286.2 130.7 285.2 131.1 284.5 131.5C283.8 131.8 283.4 132 283.4 132C283.4 132 283.7 131.7 284.4 131.3C285.1 130.9 286 130.4 287.3 129.8C289.8 128.6 293.3 127.2 297.4 126.3C301.5 125.4 305.3 125.2 308 125.3C309.4 125.3 310.5 125.4 311.2 125.5C312 125.6 312.4 125.7 312.4 125.7Z" fill="#FAFAFA"/>
<path d="M208.4 113.4C208.4 113.5 207.5 112.8 206.1 111.9C204.6 111 202.5 109.9 200.1 109.1C197.6 108.3 195.3 107.9 193.6 107.8C191.9 107.7 190.8 107.7 190.8 107.6C190.8 107.6 191.1 107.5 191.5 107.5C192 107.5 192.7 107.4 193.6 107.5C195.3 107.6 197.7 107.9 200.2 108.7C202.7 109.5 204.8 110.7 206.3 111.7C207 112.2 207.6 112.6 207.9 112.9C208.2 113.2 208.4 113.4 208.4 113.4Z" fill="#FAFAFA"/>
<path d="M277.1 111.9C277.1 111.9 276.9 111.9 276.5 111.9C276 111.9 275.4 111.8 274.6 111.8C272.9 111.7 270.6 111.5 267.8 111.3C262.1 110.9 254.1 110.4 245.3 110.1C236.5 109.8 228.6 109.6 222.8 109.6C220 109.6 217.6 109.6 216 109.6C215.2 109.6 214.6 109.6 214.1 109.6C213.7 109.6 213.5 109.6 213.5 109.6C213.5 109.6 213.7 109.6 214.1 109.5C214.6 109.5 215.2 109.5 216 109.4C217.6 109.4 219.9 109.3 222.8 109.3C228.6 109.3 236.5 109.4 245.3 109.7C254.1 110 262 110.6 267.8 111.1C270.7 111.3 273 111.6 274.6 111.7C275.4 111.8 276 111.9 276.4 111.9C276.9 111.9 277.1 111.9 277.1 111.9Z" fill="#FAFAFA"/>
<path d="M228.8 91.1996C228.8 91.2996 225.4 91.1996 221.3 90.8996C217.2 90.5996 213.8 90.2996 213.8 90.1996C213.8 90.0996 217.2 90.1996 221.3 90.4996C225.4 90.6996 228.8 90.9996 228.8 91.1996Z" fill="#FAFAFA"/>
<path d="M288.5 90.2998C288.5 90.3998 284.1 90.4998 278.8 90.4998C273.4 90.4998 269.1 90.3998 269.1 90.2998C269.1 90.1998 273.5 90.0998 278.8 90.0998C284.1 89.9998 288.5 90.0998 288.5 90.2998Z" fill="#FAFAFA"/>
<path d="M283.5 169.4C283.5 169.4 283.4 169.4 283.3 169.4C283.1 169.4 282.9 169.4 282.7 169.4C282.1 169.4 281.4 169.4 280.4 169.4C278.4 169.4 275.5 169.4 271.8 169.3C264.6 169.2 254.6 168.8 243.6 168.1C232.6 167.4 222.7 166.5 215.5 165.7C211.9 165.3 209 165 207 164.7C206 164.6 205.3 164.5 204.7 164.4C204.5 164.4 204.3 164.3 204.1 164.3C204 164.3 203.9 164.3 203.9 164.3C203.9 164.3 204 164.3 204.1 164.3C204.3 164.3 204.5 164.3 204.7 164.3C205.3 164.4 206 164.4 207 164.5C209 164.7 211.9 165 215.5 165.4C222.7 166.1 232.6 167 243.6 167.7C254.6 168.4 264.6 168.8 271.8 169C275.4 169.1 278.3 169.2 280.3 169.2C281.3 169.2 282.1 169.2 282.6 169.3C282.8 169.3 283 169.3 283.2 169.3C283.4 169.4 283.5 169.4 283.5 169.4Z" fill="#FAFAFA"/>
<path d="M284 197.3C284 197.3 283.9 197.3 283.8 197.4C283.6 197.4 283.4 197.5 283.2 197.5C282.6 197.6 281.8 197.8 280.8 198C279.7 198.2 278.5 198.5 276.9 198.7C275.4 198.9 273.7 199.2 271.8 199.5C269.9 199.8 267.8 200 265.6 200.2C263.4 200.4 260.9 200.6 258.4 200.8C253.3 201.1 247.7 201.2 241.9 201C236 200.8 230.5 200.3 225.4 199.6C222.9 199.2 220.5 198.9 218.3 198.5C216.1 198.1 214 197.7 212.1 197.3C210.2 196.9 208.5 196.5 207 196.2C205.5 195.9 204.2 195.5 203.2 195.2C202.2 194.9 201.4 194.7 200.8 194.5C200.6 194.4 200.3 194.4 200.2 194.3C200.1 194.3 200 194.2 200 194.2C200 194.2 200.1 194.2 200.2 194.2C200.4 194.2 200.6 194.3 200.8 194.3C201.4 194.4 202.2 194.6 203.2 194.9C204.2 195.2 205.5 195.5 207 195.8C208.5 196.1 210.2 196.5 212.1 196.9C214 197.3 216 197.7 218.3 198C220.5 198.4 222.9 198.7 225.4 199C230.4 199.6 236 200.1 241.8 200.3C247.6 200.5 253.2 200.4 258.3 200.2C260.8 200 263.2 199.9 265.5 199.7C267.7 199.5 269.8 199.3 271.7 199C273.6 198.8 275.3 198.5 276.8 198.3C278.3 198.1 279.6 197.9 280.7 197.7C281.7 197.5 282.5 197.4 283.1 197.3C283.4 197.3 283.6 197.2 283.7 197.2C284 197.3 284 197.3 284 197.3Z" fill="#FAFAFA"/>
<path d="M282.4 221.2C282.4 221.2 282.3 221.2 282.2 221.3C282 221.4 281.8 221.4 281.6 221.5C281 221.7 280.2 221.9 279.2 222.2C278.7 222.3 278.1 222.5 277.4 222.7C276.7 222.8 276 223 275.3 223.2C274.5 223.4 273.7 223.5 272.8 223.7C271.9 223.9 271 224 270 224.2C269 224.4 268 224.5 266.9 224.7C265.8 224.8 264.7 225 263.6 225.1C263 225.2 262.4 225.2 261.8 225.3C261.2 225.3 260.6 225.4 260 225.4C258.8 225.5 257.5 225.6 256.2 225.7C251 225.9 245.2 226 239.2 225.6C233.2 225.2 227.5 224.5 222.3 223.6C221 223.4 219.8 223.1 218.6 222.9C218 222.8 217.4 222.7 216.8 222.5C216.2 222.4 215.6 222.2 215.1 222.1C214 221.8 212.9 221.6 211.8 221.3C210.8 221 209.8 220.7 208.8 220.5C201.2 218.3 196.7 216.3 196.7 216.3C196.7 216.3 196.8 216.3 196.9 216.4C197.1 216.5 197.3 216.5 197.5 216.6C198.1 216.8 198.9 217.1 199.9 217.4C200.4 217.6 201 217.8 201.6 218C202.2 218.2 202.9 218.4 203.7 218.6C204.4 218.8 205.2 219.1 206.1 219.4C206.9 219.7 207.9 219.9 208.8 220.1C209.8 220.4 210.7 220.6 211.8 220.9C212.8 221.1 213.9 221.4 215.1 221.6C215.7 221.7 216.2 221.9 216.8 222C217.4 222.1 218 222.2 218.6 222.3C219.8 222.5 221.1 222.8 222.3 223C227.4 223.8 233.1 224.6 239.1 224.9C245.1 225.2 250.8 225.2 256 225C257.3 224.9 258.6 224.8 259.8 224.7C260.4 224.7 261 224.6 261.6 224.6C262.2 224.5 262.8 224.5 263.4 224.4C264.5 224.3 265.7 224.1 266.7 224C267.8 223.9 268.8 223.7 269.8 223.5C270.8 223.3 271.7 223.2 272.6 223.1C273.5 222.9 274.3 222.8 275.1 222.6C275.9 222.4 276.6 222.3 277.2 222.2C277.9 222.1 278.4 221.9 279 221.8C280 221.5 280.9 221.3 281.5 221.2C281.8 221.1 282 221.1 282.1 221C282.3 221.2 282.4 221.2 282.4 221.2Z" fill="#FAFAFA"/>
<path opacity="0.2" d="M200.2 187.7C214.5 184.9 228.1 178.4 239.2 168.9C241.2 167.2 243.3 165.4 245.9 165.3C248.8 165.2 251.2 167.4 253.5 169.3C262.2 176.8 273 181.9 284.3 184.1C285.9 181.5 285.2 178 283.4 175.6C281.6 173.2 278.9 171.6 276.3 170C268.1 165.2 259.9 160.5 251.8 155.7C249.9 154.6 247.9 153.5 245.7 153.8C244.3 154 243.1 154.9 241.9 155.7C229.1 164.7 216.3 173.7 203.6 182.7C201.9 183.9 200 185.9 201.1 187.7" fill="black"/>
<path d="M176.2 150.1C176.2 150.1 170.5 167.2 169.6 170.2C168 175.9 169.5 190.9 183.4 190.9C200.3 190.9 262 151.1 262 151.1L249.4 143.5L199.4 159.8L201.3 154.2C201.3 154.1 187.5 146.9 176.2 150.1Z" fill="#FFBE9D"/>
<path d="M249.7 144C249.7 144 266.2 122.6 266.2 122.3C266.2 122 276 113.6 276 113.6C276 113.6 278.2 113.7 278 115.1C277.8 116.5 274.3 121.5 274.3 121.5C274.3 121.5 273.9 122.6 272.6 124.6C271.6 126 266.8 134.6 266.8 134.6C266.8 134.6 271.4 130.2 272.3 130.6C273.1 131.1 273.8 131.6 273.3 133C272.8 134.4 268.5 138.7 268.5 138.7C268.5 138.7 266 147.6 263.1 150.2L256 155L249.7 144Z" fill="#FFBE9D"/>
<path d="M265 138.399C265.1 138.399 265.2 139.599 264.3 141.099C263.9 141.799 263.2 142.599 262.5 143.499C261.8 144.399 261.2 145.399 260.8 146.599C260.4 147.799 260.1 148.999 259.6 150.099C259.2 151.199 258.6 152.099 258 152.699C257.4 153.299 256.8 153.699 256.3 153.899C255.8 154.099 255.6 154.099 255.6 154.099C255.6 153.999 256.7 153.799 257.8 152.499C258.3 151.899 258.8 150.999 259.2 149.999C259.6 148.999 259.9 147.799 260.3 146.499C260.7 145.299 261.3 144.099 262.1 143.199C262.8 142.299 263.5 141.599 264 140.899C265 139.499 264.9 138.299 265 138.399Z" fill="#EB996E"/>
<path d="M274.3 122.1C274.3 122.1 274.1 121.9 273.8 121.7C273.4 121.5 272.8 121.3 272.1 121.4C271.3 121.5 270.5 122 269.8 122.7C269.1 123.4 268.4 124.4 267.7 125.4C266.2 127.3 264.8 129.1 263.8 130.3C262.8 131.5 262.1 132.3 262.1 132.3C262.1 132.3 262.6 131.4 263.6 130.1C264.5 128.8 265.9 127 267.4 125.1C268.2 124.1 268.8 123.2 269.6 122.4C270.4 121.6 271.3 121.1 272.1 121.1C272.9 121 273.6 121.3 274 121.6C274.2 121.8 274.3 122.1 274.3 122.1Z" fill="#EB996E"/>
<path d="M265.1 143.4C265 143.4 265.6 141.4 266.1 139C266.6 136.6 266.7 134.6 266.8 134.6C266.9 134.6 267 136.6 266.5 139.1C266.1 141.6 265.2 143.4 265.1 143.4Z" fill="#EB996E"/>
<path d="M313.1 146.5C313.1 146.5 319.2 163.8 320 166.8C321.3 171.4 320.1 187.5 306.2 187.5C289.3 187.5 227.6 147.7 227.6 147.7L239.2 139.8L290.1 156.4L288.1 150.6C288.2 150.6 298.7 144.3 313.1 146.5Z" fill="#FFBE9D"/>
<path d="M239.9 140.7C239.9 140.7 223.4 119.3 223.4 119C223.4 118.7 213.6 110.3 213.6 110.3C213.6 110.3 211.4 110.4 211.6 111.8C211.8 113.2 215.3 118.2 215.3 118.2C215.3 118.2 215.7 119.3 217 121.3C218 122.7 222.8 131.3 222.8 131.3C222.8 131.3 218.2 126.9 217.3 127.3C216.5 127.8 215.8 128.3 216.3 129.7C216.8 131.1 221.1 135.4 221.1 135.4C221.1 135.4 223.6 144.3 226.5 146.9L233.6 151.6L239.9 140.7Z" fill="#FFBE9D"/>
<path d="M224.6 135C224.7 135 224.6 136.1 225.6 137.5C226.1 138.2 226.8 138.9 227.5 139.8C228.2 140.7 228.9 141.8 229.3 143.1C229.7 144.3 230 145.5 230.4 146.6C230.8 147.6 231.3 148.5 231.8 149.1C232.9 150.4 234 150.6 234 150.7C234 150.7 233.7 150.7 233.3 150.5C232.9 150.3 232.2 150 231.6 149.3C231 148.7 230.4 147.8 230 146.7C229.6 145.6 229.3 144.4 228.8 143.2C228.4 142 227.8 140.9 227.1 140.1C226.4 139.2 225.7 138.5 225.3 137.7C224.3 136.2 224.5 135 224.6 135Z" fill="#EB996E"/>
<path d="M215.3 118.7C215.3 118.7 215.4 118.4 215.7 118.1C216.1 117.8 216.7 117.5 217.6 117.6C218.5 117.6 219.4 118.2 220.1 118.9C220.9 119.7 221.5 120.6 222.3 121.6C223.8 123.5 225.1 125.3 226.1 126.6C227 127.9 227.6 128.7 227.6 128.8C227.6 128.8 226.9 128.1 225.9 126.8C224.9 125.6 223.5 123.8 222 121.9C221.2 120.9 220.6 120 219.9 119.2C219.2 118.4 218.4 118 217.6 117.9C216.8 117.8 216.2 118 215.9 118.2C215.5 118.5 215.3 118.8 215.3 118.7Z" fill="#EB996E"/>
<path d="M224.4 140C224.3 140 223.5 138.2 223 135.7C222.5 133.2 222.6 131.2 222.7 131.2C222.8 131.2 223 133.2 223.4 135.6C223.9 138.1 224.6 140 224.4 140Z" fill="#EB996E"/>
<path d="M254.3 164C254.2 164.1 248 160.4 240.3 155.7C232.6 151 226.5 147.1 226.5 147C226.6 146.9 232.8 150.6 240.5 155.3C248.2 160 254.4 163.9 254.3 164Z" fill="#EB996E"/>
<path d="M291.2 156.899C291.2 156.899 291 156.899 290.7 156.799C290.3 156.699 289.8 156.499 289.2 156.399C287.8 155.999 285.9 155.399 283.6 154.699C278.9 153.199 272.4 151.099 265.2 148.799C258 146.499 251.5 144.299 246.8 142.699C244.5 141.899 242.6 141.199 241.3 140.699C240.7 140.499 240.2 140.299 239.8 140.099C239.5 139.999 239.3 139.899 239.3 139.899C239.3 139.899 239.5 139.899 239.8 139.999C240.2 140.099 240.7 140.299 241.3 140.499C242.7 140.899 244.6 141.599 246.9 142.299C251.7 143.899 258.1 145.999 265.3 148.299C272.5 150.699 278.9 152.799 283.7 154.299C286 155.099 287.9 155.699 289.3 156.199C289.9 156.399 290.4 156.599 290.8 156.699C291 156.799 291.2 156.899 291.2 156.899Z" fill="#EB996E"/>
<path d="M243.9 7.90039C230.9 7.90039 220.3 18.2004 219.9 31.1004C219.5 42.7004 219.2 55.4004 219.6 61.6004C220.4 74.4004 233.3 75.8004 233.3 75.8004V83.6004C233.3 92.7004 240.7 100.2 249.8 100.2C258.8 100.2 266.2 93.0004 266.3 84.0004L267.3 32.6004C267.9 19.2004 257.3 8.10039 243.9 7.90039Z" fill="#FFBE9D"/>
<path d="M233.3 75.9004C233.3 75.9004 241.4 76.2004 249.8 70.4004C249.8 70.4004 246.2 79.9004 233.3 79.4004V75.9004Z" fill="#EB996E"/>
<path d="M223.8 38.5C224 38.7 225.4 37.7 227.4 37.7C229.4 37.7 230.8 38.7 231 38.4C231.1 38.3 230.9 37.9 230.2 37.4C229.6 36.9 228.5 36.5 227.3 36.5C226.1 36.5 225 37 224.5 37.4C223.9 38 223.7 38.4 223.8 38.5Z" fill="#263238"/>
<path d="M243.4 38.2004C243.6 38.4004 245 37.4004 247 37.3004C249 37.2004 250.4 38.2004 250.6 38.0004C250.7 37.9004 250.5 37.5004 249.8 37.0004C249.2 36.6004 248.1 36.1004 246.9 36.2004C245.7 36.2004 244.7 36.7004 244.1 37.2004C243.4 37.6004 243.2 38.1004 243.4 38.2004Z" fill="#263238"/>
<path d="M235.9 51.8001C235.9 51.7001 234.7 51.5001 232.7 51.4001C232.2 51.4001 231.7 51.3001 231.6 51.0001C231.5 50.6001 231.6 50.1001 231.9 49.5001C232.3 48.3001 232.7 47.0001 233.2 45.6001C235 40.1001 236.3 35.5001 236.1 35.4001C235.9 35.3001 234.2 39.8001 232.4 45.3001C232 46.7001 231.6 48.0001 231.2 49.2001C231 49.8001 230.7 50.4001 231 51.2001C231.2 51.6001 231.5 51.8001 231.9 51.9001C232.2 52.0001 232.5 52.0001 232.8 52.0001C234.7 52.0001 235.9 51.9001 235.9 51.8001Z" fill="#263238"/>
<path d="M242.1 33.6005C242.4 34.1005 244.3 33.4005 246.6 33.2005C248.9 32.9005 250.9 33.2005 251.1 32.6005C251.2 32.3005 250.8 31.9005 249.9 31.6005C249.1 31.3005 247.8 31.0005 246.4 31.2005C245 31.4005 243.8 31.9005 243.1 32.4005C242.3 32.9005 242 33.4005 242.1 33.6005Z" fill="#263238"/>
<path d="M223.2 33.6006C223.5 34.1006 225 34.0006 226.7 34.5006C228.4 34.9006 229.8 35.6006 230.2 35.2006C230.4 35.0006 230.3 34.5006 229.8 34.0006C229.3 33.4006 228.3 32.8006 227.1 32.6006C225.9 32.3006 224.8 32.5006 224.1 32.8006C223.4 32.9006 223.1 33.3006 223.2 33.6006Z" fill="#263238"/>
<path d="M243.5 56.1002C243.4 56.2002 243 56.0002 242.2 55.7002C241.4 55.5002 240.3 55.4002 239.2 55.7002C238.1 56.0002 237.2 56.7002 236.7 57.3002C236.2 57.9002 235.9 58.4002 235.8 58.3002C235.7 58.3002 235.7 57.7002 236.2 56.9002C236.6 56.1002 237.6 55.2002 239 54.8002C240.4 54.4002 241.7 54.7002 242.5 55.1002C243.2 55.5002 243.6 56.0002 243.5 56.1002Z" fill="#263238"/>
<path d="M225.6 40.3006C225.6 41.3006 226.4 42.0006 227.4 42.0006C228.4 42.0006 229.2 41.2006 229.2 40.3006C229.2 39.3006 228.4 38.6006 227.4 38.6006C226.4 38.6006 225.6 39.3006 225.6 40.3006Z" fill="#263238"/>
<path d="M245.2 39.7C245.2 40.7 246 41.4 247 41.4C248 41.4 248.8 40.6 248.8 39.7C248.8 38.7 248 38 247 38C245.9 38 245.1 38.8 245.2 39.7Z" fill="#263238"/>
<path d="M275.7 32.0002C276.2 31.3002 276.7 30.3002 276.5 29.4002C276.2 28.4002 275.1 27.8002 274.7 26.8002C274.3 25.8002 274.7 24.7003 274.7 23.6003C274.6 22.1003 273.7 20.8002 272.6 19.8002C272.5 19.7002 272.4 19.6002 272.2 19.5002C270.7 16.2002 268.8 13.8003 268.8 13.8003L272.1 16.9002C273.3 13.7002 268.5 8.00025 264.7 6.30025C260.7 4.60025 256.4 6.30025 256.4 6.30025C256.4 6.30025 246.6 -1.09975 237 1.30025C231.1 2.80025 225.2 5.30025 221.2 11.2003C219.6 11.9003 218.4 13.6003 217.8 15.4003C217.1 17.6003 216.9 20.0002 215.8 22.0002C215 23.5002 213.7 25.0003 214.1 26.6003C214.4 27.9003 215.8 28.8003 216.3 30.1003C216.8 31.4003 216.1 32.8003 216.2 34.2003C216.2 36.3003 217.9 38.3003 220 38.6003C220.6 35.1003 221 31.6003 221.3 28.1003C223 29.2003 226.5 30.3002 233.4 27.9002L242.3 22.9002C242.3 22.9002 237.9 26.7002 240.1 27.3002C241.9 27.8002 251.5 22.7003 254.3 21.1003C255.2 20.6003 256.1 20.4002 257.1 20.5002C258.4 20.6002 259.9 21.4002 260.2 23.9002C260.5 26.1002 259.2 46.4003 261.1 46.5003C262.2 46.5003 266.2 44.7003 266.9 44.3003V54.2003C267.3 54.0003 267.5 53.7003 267.8 53.3003C269.2 51.3003 270.6 49.3003 272.1 47.2003C273.1 45.8003 274.1 44.4003 274.7 42.8003C275.3 41.2003 275.6 39.5003 275.2 37.8003C274.9 36.7003 274.2 35.6003 274.4 34.4003C274.5 33.5003 275.1 32.8002 275.7 32.0002Z" fill="#263238"/>
<path d="M251.7 0.200172C251.8 -0.099828 252.5 -0.099828 253.4 0.300172C254.3 0.700172 255.4 1.60017 256.3 2.80017C257.1 4.10017 257.5 5.40017 257.6 6.40017C257.6 7.40017 257.4 8.00017 257.1 8.00017C256.5 8.00017 255.9 6.00017 254.5 4.10017C253 2.10017 251.4 0.800172 251.7 0.200172Z" fill="#263238"/>
<path d="M219.5 14.5002C219.6 14.5002 219.7 15.1002 220.5 15.8002C221.3 16.4002 222.9 17.0002 224.7 16.4002C225.6 16.1002 226.5 15.6002 227.5 15.0002C228.5 14.4002 229.4 13.7002 230.6 13.1002C231.7 12.5002 233.1 12.0002 234.6 12.2002C236 12.4002 237.4 13.0002 238.7 13.6002C240 14.2002 241.3 14.8002 242.7 14.9002C244 15.0002 245.3 14.6002 246.3 13.9002C248.4 12.5002 249.8 10.7002 251.4 9.5002C252.9 8.3002 254.5 7.7002 255.6 7.7002C256.1 7.7002 256.6 7.8002 256.8 7.8002C257.1 7.9002 257.2 7.9002 257.2 8.0002C257.2 8.1002 256.6 7.8002 255.6 7.9002C254.5 8.0002 253.1 8.5002 251.6 9.7002C250.1 10.8002 248.7 12.7002 246.5 14.2002C245.4 14.9002 244 15.4002 242.6 15.3002C241.1 15.2002 239.8 14.5002 238.5 13.9002C237.2 13.3002 235.9 12.6002 234.5 12.5002C233.2 12.3002 231.9 12.7002 230.8 13.3002C229.7 13.9002 228.7 14.6002 227.7 15.2002C226.7 15.8002 225.8 16.3002 224.8 16.6002C222.9 17.2002 221.2 16.6002 220.4 15.8002C220 15.4002 219.7 15.1002 219.6 14.8002C219.5 14.7002 219.5 14.5002 219.5 14.5002Z" fill="#EF9B4A"/>
<path d="M274.3 24.1C274.3 24.1 274.3 24.2 274.2 24.3C274.1 24.4 274 24.6 273.7 24.9C273.2 25.3 272.4 25.8 271.2 25.8C270.1 25.9 268.7 25.3 267.6 24.4C266.4 23.5 265.4 22.3 264.3 21C262.2 18.4 260.7 15.8 259.7 13.8C259.2 12.8 258.9 12 258.7 11.4C258.5 10.8 258.4 10.5 258.4 10.5C258.5 10.5 259 11.7 260 13.7C261 15.6 262.5 18.2 264.6 20.8C265.6 22.1 266.7 23.3 267.8 24.2C268.9 25.1 270.1 25.6 271.2 25.6C272.3 25.6 273.1 25.2 273.5 24.9C274.1 24.3 274.3 24 274.3 24.1Z" fill="#EF9B4A"/>
<path d="M274.4 35.8C274.4 35.8 274.2 35.9 273.8 36.1C273.4 36.2 272.8 36.4 272 36.4C270.5 36.5 268.3 35.9 266.4 34.6C264.4 33.3 263.1 31.7 262.1 30.5C261.2 29.3 260.6 28.6 260.7 28.5C260.8 28.5 261.4 29.2 262.4 30.3C263.4 31.4 264.8 33 266.7 34.2C268.6 35.5 270.6 36 272.1 36C273.5 36 274.4 35.7 274.4 35.8Z" fill="#EF9B4A"/>
<path d="M263.4 38.7998C263.6 38.6998 272.1 35.7998 272.2 44.5998C272.3 53.3998 263.5 51.6998 263.5 51.3998C263.4 51.1998 263.4 38.7998 263.4 38.7998Z" fill="#FFBE9D"/>
<path d="M266.1 48.1002C266.1 48.1002 266.3 48.2002 266.5 48.3002C266.8 48.4002 267.2 48.5002 267.6 48.3002C268.5 47.9002 269.3 46.5002 269.3 44.9002C269.3 44.1002 269.1 43.3002 268.8 42.7002C268.5 42.1002 268.1 41.6002 267.6 41.5002C267.1 41.4002 266.8 41.7002 266.7 41.9002C266.6 42.1002 266.6 42.3002 266.6 42.3002C266.6 42.3002 266.4 42.2002 266.5 41.8002C266.5 41.6002 266.6 41.4002 266.8 41.2002C267 41.0002 267.3 40.9002 267.6 41.0002C268.3 41.0002 268.9 41.6002 269.2 42.3002C269.6 43.0002 269.8 43.8002 269.8 44.7002C269.8 46.5002 268.9 48.1002 267.6 48.5002C267 48.7002 266.5 48.5002 266.2 48.3002C266.1 48.3002 266.1 48.1002 266.1 48.1002Z" fill="#EB996E"/>
</svg>
